<?xml version="1.0" encoding="UTF-8" standalone="no"?>
<svg
    class="icons-ftr google-footer"
    width="22px"
    height="20px"
    viewBox="0 0 22 20"
    version="1.1"
    xmlns="http://www.w3.org/2000/svg"
    xmlns:xlink="http://www.w3.org/1999/xlink"
    role="img"
    aria-label="google icon for opening in new tab the decorist page on google plus"
>
    <title>Google icon</title>
    <desc>Opens the decorist page on google plus in new tab</desc>
    <g stroke="none" stroke-width="1" fill="none" fill-rule="evenodd">
        <g transform="translate(-401.000000, -737.000000)" stroke="#666666" stroke-width="0.9" fill="#666666">
            <g transform="translate(0.000000, 276.000000)">
                <g transform="translate(230.000000, 461.000000)">
                    <g transform="translate(172.000000, 1.000000)">
                        <path
                            d="M16.6315789,3.6 L16.6315789,0 L15.7894737,0 L15.7894737,3.6
                            L12.4210526,3.6 L12.4210526,4.5 L15.7894737,4.5 L15.7894737,8.1
                            L16.6315789,8.1 L16.6315789,4.5 L20,4.5 L20,3.6 L16.6315789,3.6 Z"
                        ></path>
                        <path
                            d="M8.73052632,10.341 C8.26,9.98505 7.36021053,9.11925
                            7.36021053,8.610525 C7.36021053,8.01405 7.51957895,7.720425
                            8.35936842,7.018875 C9.22042105,6.3 9.82968421,5.2893 9.82968421,4.113675
                            C9.82968421,2.714175 9.24631579,1.35 8.15157895,0.9 L9.80210526,0.9
                            L10.9671579,0 L5.76147368,0 C3.42757895,0 1.23115789,1.88955
                            1.23115789,4.078575 C1.23115789,6.3153 2.82210526,8.1207
                            5.19642105,8.1207 C5.36147368,8.1207 5.52189474,8.1171 5.67894737,8.105175
                            C5.52484211,8.4204 5.41473684,8.77545 5.41473684,9.144225
                            C5.41473684,9.765675 5.72757895,10.2699 6.12315789,10.6812
                            C5.82442105,10.6812 5.53557895,10.690425 5.22084211,10.690425
                            C2.33010526,10.690425 0.105263158,12.65805 0.105263158,14.69835
                            C0.105263158,16.707825 2.54421053,17.9649 5.43494737,17.9649
                            C8.73052632,17.9649 10.5507368,15.96645 10.5507368,13.95675
                            C10.5507368,12.345525 10.1058947,11.3805 8.73052632,10.341
                            L8.73052632,10.341 Z M5.94968421,7.553475 C4.60842105,7.510725
                            3.33368421,5.9499 3.10231579,4.068 C2.87073684,2.185425
                            3.77010526,0.74475 5.11094737,0.787725 C6.45178947,0.8307
                            7.72694737,2.3409 7.95852632,4.22325 C8.18968421,6.1056 7.29031579,7.59645
                            5.94968421,7.553475 L5.94968421,7.553475 Z M5.42442105,17.0766
                            C3.42631579,17.0766 1.98336842,15.7248 1.98336842,14.100975
                            C1.98336842,12.50955 3.77326316,11.18475 5.77136842,11.207925
                            C6.23747368,11.2131 6.672,11.2932 7.06652632,11.429775
                            C8.15115789,12.23595 8.92926316,12.69135 9.14884211,13.610025
                            C9.19010526,13.796325 9.21242105,13.988025 9.21242105,14.183775
                            C9.21242105,15.8076 8.23347368,17.0766 5.42442105,17.0766 L5.42442105,17.0766 Z"
                        ></path>
                    </g>
                </g>
            </g>
        </g>
    </g>
</svg>
