<svg width="11" height="9" viewBox="0 0 11 9" fill="none" xmlns="http://www.w3.org/2000/svg">
<path fill-rule="evenodd" clip-rule="evenodd" d="M10.4996 5C10.7998 5 11 4.8 11 4.5C11 4.2 10.7998 4 10.4996 4H1.68891L4.84153 0.85C5.0417 0.65 5.0417 0.35 4.84153 0.15C4.64137 -0.05 4.34112 -0.05 4.14095 0.15L0.137615 4.15C0.087573 4.2 0.0375313 4.25 0.0375313 4.3C-0.0125104 4.4 -0.0125104 4.55 0.0375313 4.7C0.087573 4.75 0.087573 4.8 0.137615 4.85L4.14095 8.85C4.24103 8.95 4.39116 9 4.49124 9C4.64137 9 4.74145 8.95 4.84153 8.85C5.0417 8.65 5.0417 8.35 4.84153 8.15L1.68891 5H10.4996Z" fill="#231F20"/>
</svg>
