<?xml version="1.0" encoding="UTF-8" standalone="no"?>
<svg
    class="icons-ftr pinterest-footer"
    width="18px"
    height="18px"
    viewBox="0 0 18 18"
    version="1.1"
    xmlns="http://www.w3.org/2000/svg"
    xmlns:xlink="http://www.w3.org/1999/xlink"
    role="img"
    aria-label="pinterest icon for opening in new tab the decorist boards on pinterest"
>
    <title>Pinterest icon</title>
    <desc>Opens the decorist boards on pinterest in new tab</desc>
    <g stroke="none" stroke-width="1" fill="none" fill-rule="evenodd">
        <g transform="translate(-230.000000, -737.000000)" fill="#666666">
            <g transform="translate(0.000000, 276.000000)">
                <g transform="translate(230.000000, 461.000000)">
                    <g>
                        <path
                            d="M8.98003636,0 C4.02080727,0 0,4.00591304 0,8.94736957 C0,12.611087
                            2.21112,15.7585435 5.37512727,17.1423913 C5.34986182,16.5176087
                            5.37061091,15.7676087 5.53143273,15.0878478 C5.70410182,14.3614565
                            6.68690182,10.2124565 6.68690182,10.2124565 C6.68690182,10.2124565
                            6.39994909,9.64115217 6.39994909,8.79678261 C6.39994909,7.47091304
                            7.17133091,6.48058696 8.13187636,6.48058696 C8.94861818,6.48058696
                            9.34324364,7.09186957 9.34324364,7.82386957 C9.34324364,8.64202174
                            8.81954182,9.86569565 8.55019636,10.9991087 C8.32522909,11.9482174
                            9.02781818,12.7223478 9.96754909,12.7223478 C11.6689745,12.7223478
                            12.8148218,10.5450652 12.8148218,7.9653913 C12.8148218,6.00436957
                            11.4892364,4.53665217 9.07828364,4.53665217 C6.35432727,4.53665217
                            4.65735273,6.56067391 4.65735273,8.8215 C4.65735273,9.60097826
                            4.88801455,10.1507609 5.24932364,10.5763696 C5.41551273,10.7718913
                            5.43855273,10.8505435 5.3784,11.0750217 C5.33533091,11.2396957
                            5.23642909,11.6360217 5.19545455,11.7930652 C5.13569455,12.0196957
                            4.95144,12.1006957 4.74584727,12.0170217 C3.49121455,11.5066957
                            2.90683636,10.1376522 2.90683636,8.59878261 C2.90683636,6.05713043
                            5.05819636,3.00952174 9.32478545,3.00952174 C12.7532291,3.00952174
                            15.0096436,5.48145652 15.0096436,8.1348913 C15.0096436,11.6448261
                            13.0512436,14.2670217 10.1644364,14.2670217 C9.19492364,14.2670217
                            8.28301091,13.7448261 7.97059636,13.1517391 C7.97059636,13.1517391
                            7.44925091,15.2132609 7.33882909,15.6112826 C7.14848727,16.3011522
                            6.77578909,16.9906304 6.43503273,17.5280217 C7.24267636,17.7655435
                            8.09581091,17.8949348 8.98003636,17.8949348 C13.9388727,17.8949348
                            17.9594836,13.8890217 17.9594836,8.94736957 C17.9594836,4.00591304
                            13.9388727,0 8.98003636,0"
                        ></path>
                    </g>
                </g>
            </g>
        </g>
    </g>
</svg>
