<?xml version="1.0" encoding="UTF-8" standalone="no"?>
<svg
    class="icons-ftr twitter-footer"
    width="22px"
    height="18px"
    viewBox="0 0 22 18"
    version="1.1"
    xmlns="http://www.w3.org/2000/svg"
    xmlns:xlink="http://www.w3.org/1999/xlink"
    role="img"
    aria-label="twitter icon for opening in new tab the decorist page on twitter"
>
    <title>Twitter icon</title>
    <desc>Opens the decorist page on twitter in new tab</desc>
    <g stroke="none" stroke-width="1" fill="none" fill-rule="evenodd">
        <g transform="translate(-356.000000, -737.000000)" fill="#666666">
            <g transform="translate(0.000000, 276.000000)">
                <g transform="translate(230.000000, 461.000000)">
                    <g transform="translate(126.000000, 0.000000)">
                        <path
                            d="M19.40774,2.84624945 C20.33944,2.28388788 21.05521,1.39338977
                            21.39225,0.33223409 C20.52006,0.853066398 19.55415,1.23114879
                            18.52598,1.43491903 C17.70274,0.551730078 16.5297,0 15.23148,0
                            C12.73888,0 10.71785,2.03449082 10.71785,4.54396564 C10.71785,4.90012059
                            10.75778,5.24697298 10.83478,5.5795393 C7.08356,5.39005513
                            3.75771,3.58092976 1.53164,0.831692671 C1.14312,1.50280553
                            0.92048,2.2834449 0.92048,3.11624502 C0.92048,4.69280652 1.71732,6.08364916
                            2.92842,6.89850864 C2.18856,6.87492002 1.49259,6.67048531 0.88407,6.33016686
                            C0.88363,6.3491042 0.88363,6.36804154 0.88363,6.38731112 C0.88363,8.58891569
                            2.43947,10.4255057 4.50428,10.8430132 C4.12555,10.9468918 3.7268,11.0024856
                            3.31518,11.0024856 C3.02434,11.0024856 2.74153,10.9739135 2.46598,10.9208668
                            C3.04029,12.7261161 4.70712,14.0399911 6.68228,14.0765369 C5.13755,15.295393
                            3.19143,16.0218782 1.07668,16.0218782 C0.71236,16.0218782 0.3531,16.000283
                            0,15.9583108 C1.99749,17.2476005 4.36997,18 6.91889,18 C15.22092,18
                            19.76095,11.0757986 19.76095,5.07088891 C19.76095,4.8738741
                            19.75644,4.67796673 19.74775,4.48305606 C20.62973,3.84228725
                            21.39489,3.04204607 22,2.13072796 C21.19062,2.49219865 20.32063,2.73650145
                            19.40774,2.84624945 Z"
                        ></path>
                    </g>
                </g>
            </g>
        </g>
    </g>
</svg>
